<svg xmlns="http://www.w3.org/2000/svg" viewBox="0 0 256 256" role="img" aria-label="Onions">
  <rect x="16" y="16" width="224" height="224" rx="28" fill="#FFF8F3"/>
  <path d="M128 64c-10 16-34 26-34 62 0 44 16 84 34 84s34-40 34-84c0-36-24-46-34-62Z" fill="#E76F51" opacity="0.95"/>
  <path d="M128 64c8 18 22 28 22 58 0 40-10 78-22 78s-22-38-22-78c0-30 14-40 22-58Z" fill="none" stroke="#ffffff" stroke-width="8" opacity="0.55"/>
  <path d="M128 56c0 12-4 22-10 30" fill="none" stroke="#2D6A4F" stroke-width="10" stroke-linecap="round"/>
</svg>
